<?xml version="1.0" encoding="UTF-8" standalone="no"?>
<!-- Created with Inkscape (http://www.inkscape.org/) -->

<svg
   xmlns:dc="http://purl.org/dc/elements/1.1/"
   xmlns:cc="http://creativecommons.org/ns#"
   xmlns:rdf="http://www.w3.org/1999/02/22-rdf-syntax-ns#"
   xmlns:svg="http://www.w3.org/2000/svg"
   xmlns="http://www.w3.org/2000/svg"
   xmlns:sodipodi="http://sodipodi.sourceforge.net/DTD/sodipodi-0.dtd"
   xmlns:inkscape="http://www.inkscape.org/namespaces/inkscape"
   width="210mm"
   height="297mm"
   viewBox="0 0 210 297"
   id="svg2"
   version="1.1"
   inkscape:version="0.91+devel+osxmenu r12896"
   sodipodi:docname="hog.svg">
  <defs
     id="defs4" />
  <sodipodi:namedview
     id="base"
     pagecolor="#ffffff"
     bordercolor="#666666"
     borderopacity="1.0"
     inkscape:pageopacity="0.0"
     inkscape:pageshadow="2"
     inkscape:zoom="2.8"
     inkscape:cx="262.55572"
     inkscape:cy="775.78186"
     inkscape:document-units="mm"
     inkscape:current-layer="layer1"
     showgrid="true"
     inkscape:snap-intersection-paths="true"
     inkscape:object-nodes="true"
     inkscape:object-paths="true"
     inkscape:snap-smooth-nodes="true"
     inkscape:snap-global="false"
     inkscape:window-width="959"
     inkscape:window-height="1105"
     inkscape:window-x="743"
     inkscape:window-y="35"
     inkscape:window-maximized="0">
    <inkscape:grid
       type="xygrid"
       id="grid4514" />
  </sodipodi:namedview>
  <metadata
     id="metadata7">
    <rdf:RDF>
      <cc:Work
         rdf:about="">
        <dc:format>image/svg+xml</dc:format>
        <dc:type
           rdf:resource="http://purl.org/dc/dcmitype/StillImage" />
        <dc:title />
      </cc:Work>
    </rdf:RDF>
  </metadata>
  <g
     inkscape:label="Layer 1"
     inkscape:groupmode="layer"
     id="layer1">
    <path
       style="fill:#e9afaf;fill-rule:evenodd;stroke:none;stroke-width:0.26458332px;stroke-linecap:butt;stroke-linejoin:miter;stroke-opacity:1"
       d="m 54.504556,61.490049 c -0.736182,-0.0089 0.13522,2.645386 -0.399283,3.491183 -1.870853,2.449414 -5.291667,3.96875 -7.9375,5.291666 0,0 -2.645833,-1.322916 -2.645833,0 l 0,6.614584 c 0,2.645833 6.748893,3.154185 6.748893,3.154185 -0.113972,0.150141 -3.335777,-0.545511 -2.645833,0 11.90625,9.260417 29.286765,6.442287 26.990132,-8.043344 -0.0055,-2.068013 0.62067,-2.310526 1.263419,-2.321402 0.642748,-0.01088 0.79829,0.555472 0.766469,0.879109 -0.03182,0.323636 -0.196208,0.616814 -0.672628,0.671332 -0.47642,0.05452 -0.125184,-0.720074 -0.389135,-0.572133 -0.263951,0.147942 -0.291122,1.046259 0.213939,1.21041 0.505061,0.164151 1.313232,-0.286945 1.341883,-1.308681 0.02865,-1.021736 -0.464373,-1.349465 -1.158431,-1.465235 -0.694057,-0.11577 -1.33004,0.262436 -2.031623,1.181175 0,0 -2.097529,-6.9621 -15.875002,-5.291666 -2.648315,-1.611088 -2.833283,-3.482271 -3.569467,-3.491183 z"
       id="path4520"
       inkscape:connector-curvature="0"
       sodipodi:nodetypes="zccssccczzzzzzzccz"
       inkscape:export-xdpi="386.5173"
       inkscape:export-ydpi="386.5173" />
    <path
       style="fill:#e9afaf;fill-rule:evenodd;stroke:none;stroke-width:0.26458332px;stroke-linecap:butt;stroke-linejoin:miter;stroke-opacity:1"
       d="M 56.84816,84.106392 C 56.262716,84.495938 55.5625,86.65625 55.5625,86.65625 l 2.645833,0 c 0,0 0.488858,-2.190254 0,-2.645833 -0.488857,-0.455579 -0.77473,-0.293571 -1.360173,0.09597 z"
       id="path4523"
       inkscape:connector-curvature="0"
       sodipodi:nodetypes="zcczz"
       inkscape:export-xdpi="386.5173"
       inkscape:export-ydpi="386.5173" />
    <path
       style="fill:#e9afaf;fill-rule:evenodd;stroke:none;stroke-width:0.26458332px;stroke-linecap:butt;stroke-linejoin:miter;stroke-opacity:1"
       d="m 67.46875,84.010417 c -0.467726,-0.467726 -0.7304,-0.382121 -1.322916,0 -0.592516,0.382121 -1.199339,2.648467 -1.199339,2.648467 l 2.522255,-0.0026 c 0,0 0.467726,-2.178141 0,-2.645867 z"
       id="path4525"
       inkscape:connector-curvature="0"
       sodipodi:nodetypes="zzccz"
       inkscape:export-xdpi="386.5173"
       inkscape:export-ydpi="386.5173" />
  </g>
</svg>
